<?xml version="1.0" standalone="no"?>
<!DOCTYPE svg PUBLIC "-//W3C//DTD SVG 20010904//EN"
 "http://www.w3.org/TR/2001/REC-SVG-20010904/DTD/svg10.dtd">
<svg version="1.0" xmlns="http://www.w3.org/2000/svg"
 width="1024.000000pt" height="1024.000000pt" viewBox="0 0 1024.000000 1024.000000"
 preserveAspectRatio="xMidYMid meet">
<metadata>
Created by potrace 1.14, written by Peter Selinger 2001-2017
</metadata>
<g transform="translate(0.000000,1024.000000) scale(0.100000,-0.100000)"
fill="#000000" stroke="none">
<path d="M3927 8934 c-1 -1 -67 -5 -147 -8 -80 -4 -163 -9 -185 -11 -22 -2
-69 -7 -105 -10 -696 -68 -1364 -289 -1968 -650 -17 -10 -136 -90 -204 -137
-304 -210 -624 -548 -819 -868 -101 -164 -202 -386 -235 -515 -2 -5 -10 -35
-19 -65 -18 -65 -44 -181 -51 -230 -18 -136 -22 -195 -22 -345 0 -93 4 -195 8
-225 4 -30 11 -75 14 -100 47 -331 205 -693 438 -1008 121 -164 250 -304 424
-462 135 -122 325 -261 523 -382 l60 -38 -16 -37 c-74 -180 -148 -306 -276
-473 -111 -144 -115 -149 -369 -424 -59 -63 -98 -134 -100 -178 -1 -60 21
-117 63 -158 65 -63 115 -64 419 -4 314 62 605 155 935 297 191 82 488 247
701 387 l101 67 64 -13 c35 -7 87 -15 114 -18 28 -3 59 -8 70 -10 40 -7 175
-22 290 -31 44 -3 103 -8 130 -10 61 -6 539 -6 615 -1 96 7 214 17 240 21 14
2 57 6 95 10 39 3 95 10 125 15 30 5 71 11 90 14 74 11 302 56 311 61 4 3 21
8 37 10 49 6 312 82 453 131 389 135 797 339 1054 529 113 83 191 142 205 155
9 8 43 38 75 65 102 88 286 277 345 355 14 18 30 38 36 44 19 19 127 171 159
223 70 114 130 227 185 347 27 60 97 272 105 317 3 18 8 35 10 39 7 11 35 177
43 250 14 132 6 528 -12 581 -3 7 -7 30 -10 49 -31 215 -160 547 -298 767
-408 652 -1083 1142 -1971 1434 -134 44 -415 119 -492 132 -16 3 -50 10 -75
15 -25 6 -63 13 -85 17 -22 3 -67 10 -100 15 -101 16 -128 20 -175 24 -25 3
-69 7 -97 10 -121 13 -160 17 -257 22 -95 6 -444 12 -449 8z m448 -718 c61 -4
121 -9 135 -11 14 -2 54 -7 90 -10 92 -9 231 -31 355 -55 28 -6 59 -12 70 -14
126 -24 385 -99 540 -157 482 -178 855 -407 1155 -709 94 -94 270 -306 270
-325 0 -2 13 -23 29 -47 50 -75 141 -265 156 -323 1 -5 5 -17 8 -25 57 -142
83 -440 56 -640 -52 -374 -276 -752 -630 -1066 -86 -76 -106 -92 -193 -155
-44 -32 -85 -62 -91 -67 -65 -54 -377 -222 -544 -294 -190 -81 -499 -186 -627
-213 -10 -2 -57 -12 -104 -23 -142 -34 -344 -67 -463 -78 -34 -3 -73 -7 -87
-9 -98 -17 -483 -23 -700 -11 -156 8 -145 7 -345 32 -22 2 -51 7 -65 9 -14 3
-43 7 -65 10 -22 3 -51 7 -65 10 -14 3 -38 7 -55 10 -16 3 -41 8 -55 10 -14 3
-36 8 -50 10 -14 3 -41 8 -60 11 -19 3 -48 9 -65 13 -16 4 -35 7 -42 6 -6 0
-69 -41 -139 -90 -71 -50 -133 -92 -139 -94 -5 -2 -12 -7 -15 -11 -3 -3 -54
-37 -115 -75 -60 -38 -127 -79 -147 -92 l-37 -23 9 28 c6 15 14 36 19 47 5 11
25 58 44 105 20 47 54 129 76 184 45 108 46 104 -19 138 -14 7 -56 31 -95 54
-38 22 -90 52 -115 66 -266 149 -562 336 -600 379 -3 3 -15 12 -28 21 -36 24
-159 136 -238 216 -286 288 -475 656 -510 993 -15 150 0 361 36 501 118 454
491 902 1010 1215 119 72 303 168 400 208 36 15 79 33 95 40 133 58 390 142
565 184 175 41 177 42 315 65 100 17 129 21 230 31 39 4 77 9 86 10 9 2 72 6
140 10 68 4 125 8 126 9 5 4 391 -2 488 -8z"/>
<path d="M8566 6858 c14 -46 26 -92 28 -103 29 -145 56 -307 63 -375 10 -106
10 -460 0 -560 -46 -443 -195 -872 -434 -1252 -67 -107 -198 -296 -213 -308
-3 -3 -16 -18 -29 -35 -93 -121 -334 -368 -491 -502 -500 -428 -1136 -756
-1844 -953 -78 -21 -184 -48 -236 -60 -52 -11 -111 -25 -130 -30 -41 -10 -186
-36 -250 -45 -25 -3 -72 -10 -105 -15 -415 -62 -817 -76 -1275 -45 -60 4 -64
3 -45 -11 80 -62 402 -236 595 -321 168 -74 489 -191 502 -183 2 1 21 -5 43
-14 40 -15 178 -51 310 -80 168 -37 288 -56 577 -91 224 -27 928 -27 1068 0
11 2 55 7 98 10 42 3 84 7 92 10 8 2 40 7 70 10 30 4 57 8 60 10 3 1 32 6 65
10 32 3 63 9 67 11 4 3 54 -26 110 -64 440 -294 929 -511 1448 -642 63 -16
126 -31 140 -34 29 -5 136 -24 165 -30 86 -17 183 -27 210 -22 18 4 51 20 73
35 74 54 99 180 52 257 -24 38 -41 58 -150 177 -30 33 -68 74 -84 91 -15 17
-45 49 -65 71 -70 75 -270 348 -308 419 -44 82 -123 254 -123 266 0 4 21 20
48 36 220 127 476 326 667 518 234 235 404 466 528 718 154 315 222 608 221
963 -1 483 -157 927 -477 1350 -33 44 -63 82 -66 85 -3 3 -31 34 -61 70 -108
128 -321 329 -445 420 -33 24 -64 48 -70 52 -39 32 -194 138 -201 138 -2 0
-22 13 -46 29 -24 15 -73 45 -109 65 l-67 37 24 -83z"/>
</g>
</svg>
